<?xml version="1.0" encoding="UTF-8"?>
<svg width="47px" height="56px" viewBox="0 0 47 56" version="1.1" xmlns="http://www.w3.org/2000/svg" xmlns:xlink="http://www.w3.org/1999/xlink">
    <!-- Generator: Sketch 52.6 (67491) - http://www.bohemiancoding.com/sketch -->
    <title>MAP - Instructor PIN</title>
    <desc>Created with Sketch.</desc>
    <defs>
        <polygon id="path-1" points="0.101859139 0.0322639225 9.00548946 0.0322639225 9.00548946 8.74730024 0.101859139 8.74730024"></polygon>
    </defs>
    <g id="Account-Pages-(Set-Your-Location)" stroke="none" stroke-width="1" fill="none" fill-rule="evenodd">
        <g id="Desktop---Account---Set_Location-2@2x" transform="translate(-684.000000, -660.000000)">
            <g id="MAP---Instructor-PIN" transform="translate(675.000000, 651.000000)">
                <g id="MAP-PIN" fill="#B93142">
                    <path d="M32.5,9.91525424 L32.5,9.91525424 C44.9732107,9.91525424 55.0847458,20.0267893 55.0847458,32.5 L55.0847458,55.0847458 L32.5,55.0847458 C20.0267893,55.0847458 9.91525424,44.9732107 9.91525424,32.5 L9.91525424,32.5 C9.91525424,20.0267893 20.0267893,9.91525424 32.5,9.91525424 Z" id="Rectangle" transform="translate(32.500000, 32.500000) rotate(-315.000000) translate(-32.500000, -32.500000) "></path>
                </g>
                <g id="Group-12" transform="translate(17.627119, 18.728814)">
                    <path d="M13.4200822,12.7679358 L6.7128147,18.6100666 L9.17206574,25.1982022 C9.17206574,25.1982022 9.24120454,25.2509262 9.3706388,25.3429964 C12.7270863,27.7069189 17.2830117,27.7069189 20.6386553,25.3429964 C20.7688935,25.2509262 20.8372284,25.1982022 20.8372284,25.1982022 L23.2964794,18.6100666 L16.5892119,12.7679358 C15.6855838,11.9810109 14.3237103,11.9810109 13.4200822,12.7679358" id="Fill-1" fill="#FFFFFF"></path>
                    <path d="M13.4200822,12.7679358 L6.7128147,18.6100666 L9.17206574,25.1982022 C9.17206574,25.1982022 9.24120454,25.2509262 9.3706388,25.3429964 C12.7270863,27.7069189 17.2830117,27.7069189 20.6386553,25.3429964 C20.7688935,25.2509262 20.8372284,25.1982022 20.8372284,25.1982022 L23.2964794,18.6100666 L16.5892119,12.7679358 C15.6855838,11.9810109 14.3237103,11.9810109 13.4200822,12.7679358 Z" id="Stroke-3" stroke="#B93142" stroke-width="0.72"></path>
                    <path d="M15.0048078,11.3731901 C13.0793727,11.3425 4.61388937,11.7029116 0.550778974,20.0946792 C0.12710284,20.9705266 0.646447778,22.0053329 1.62243037,22.172161 C4.91375882,22.7332385 10.2237794,22.6687107 15.0048078,17.3923789 C19.7858362,22.6687107 25.0958568,22.7332385 28.3871853,22.172161 C29.3631679,22.0053329 29.8825128,20.9705266 29.4588367,20.0946792 C25.3957263,11.7029116 16.930243,11.3425 15.0048078,11.3731901" id="Fill-5" fill="#FFFFFF"></path>
                    <path d="M15.0048078,11.3731901 C13.0793727,11.3425 4.61388937,11.7029116 0.550778974,20.0946792 C0.12710284,20.9705266 0.646447778,22.0053329 1.62243037,22.172161 C4.91375882,22.7332385 10.2237794,22.6687107 15.0048078,17.3923789 C19.7858362,22.6687107 25.0958568,22.7332385 28.3871853,22.172161 C29.3631679,22.0053329 29.8825128,20.9705266 29.4588367,20.0946792 C25.3957263,11.7029116 16.930243,11.3425 15.0048078,11.3731901 Z" id="Stroke-7" stroke="#B93142" stroke-width="0.72"></path>
                    <g id="Group-11" transform="translate(10.451214, 0.754504)">
                        <mask id="mask-2" fill="white">
                            <use xlink:href="#path-1"></use>
                        </mask>
                        <g id="Clip-10"></g>
                        <path d="M9.00548946,4.39009685 C9.00548946,6.79730024 7.01252336,8.74730024 4.55327233,8.74730024 C2.09482524,8.74730024 0.101859139,6.79730024 0.101859139,4.39009685 C0.101859139,1.98289346 2.09482524,0.0321065375 4.55327233,0.0321065375 C7.01252336,0.0321065375 9.00548946,1.98289346 9.00548946,4.39009685" id="Fill-9" fill="#FFFFFF" mask="url(#mask-2)"></path>
                    </g>
                </g>
            </g>
        </g>
    </g>
</svg>